<svg width="24" height="24" viewBox="0 0 24 24" fill="none" xmlns="http://www.w3.org/2000/svg">
<g clip-path="url(#clip0_327_144)">
<path d="M10.8857 0.856934H21.6892C22.4932 0.856934 23.1446 1.50836 23.1446 2.31236V13.9318C23.1446 14.7375 22.4932 15.3889 21.6892 15.3889H12.8572M5.39832 6.85865C6.19419 6.85865 6.95747 6.54249 7.52024 5.97972C8.08301 5.41695 8.39918 4.65367 8.39918 3.85779C8.39918 3.06191 8.08301 2.29863 7.52024 1.73586C6.95747 1.17309 6.19419 0.856934 5.39832 0.856934C4.60244 0.856934 3.83916 1.17309 3.27639 1.73586C2.71362 2.29863 2.39746 3.06191 2.39746 3.85779C2.39746 4.65367 2.71362 5.41695 3.27639 5.97972C3.83916 6.54249 4.60244 6.85865 5.39832 6.85865Z" stroke="#00C5CC" stroke-width="1.71429" stroke-linecap="round" stroke-linejoin="round"/>
<path d="M15.4286 9.47444C15.4286 8.50244 14.64 7.71387 13.668 7.71387H5.39832C4.19393 7.71387 3.03888 8.19231 2.18725 9.04394C1.33562 9.89557 0.857178 11.0506 0.857178 12.255V16.2853H2.80289L3.45261 23.1424H7.34403L8.83889 11.2367H13.668C14.64 11.2367 15.4286 10.4482 15.4286 9.47444Z" stroke="#00C5CC" stroke-width="1.71429" stroke-linecap="round" stroke-linejoin="round"/>
</g>
<defs>
<clipPath id="clip0_327_144">
<rect width="24" height="24" fill="white"/>
</clipPath>
</defs>
</svg>
