<svg width="20" height="20" viewBox="0 0 20 20" fill="none" xmlns="http://www.w3.org/2000/svg">
<path fill-rule="evenodd" clip-rule="evenodd" d="M6.04199 8.33333C6.04199 7.28352 6.45903 6.2767 7.20136 5.53437C7.94369 4.79204 8.95051 4.375 10.0003 4.375C11.0501 4.375 12.057 4.79204 12.7993 5.53437C13.5416 6.2767 13.9587 7.28352 13.9587 8.33333C13.9587 9.38315 13.5416 10.39 12.7993 11.1323C12.057 11.8746 11.0501 12.2917 10.0003 12.2917C8.95051 12.2917 7.94369 11.8746 7.20136 11.1323C6.45903 10.39 6.04199 9.38315 6.04199 8.33333ZM10.0003 5.625C9.28203 5.625 8.59316 5.91034 8.08524 6.41825C7.57733 6.92616 7.29199 7.61504 7.29199 8.33333C7.29199 9.05163 7.57733 9.7405 8.08524 10.2484C8.59316 10.7563 9.28203 11.0417 10.0003 11.0417C10.7186 11.0417 11.4075 10.7563 11.9154 10.2484C12.4233 9.7405 12.7087 9.05163 12.7087 8.33333C12.7087 7.61504 12.4233 6.92616 11.9154 6.41825C11.4075 5.91034 10.7186 5.625 10.0003 5.625Z" fill="#00C5CC"/>
<path fill-rule="evenodd" clip-rule="evenodd" d="M2.93682 7.38067C3.07926 5.65301 3.86617 4.04208 5.14133 2.86773C6.41648 1.69338 8.08663 1.0415 9.82015 1.0415H10.1802C11.9137 1.0415 13.5838 1.69338 14.859 2.86773C16.1341 4.04208 16.921 5.65301 17.0635 7.38067C17.222 9.30507 16.6275 11.2159 15.4052 12.7107L11.411 17.5948C11.2401 17.8039 11.0248 17.9723 10.7808 18.088C10.5368 18.2036 10.2702 18.2636 10.0002 18.2636C9.73013 18.2636 9.46348 18.2036 9.21949 18.088C8.9755 17.9723 8.76025 17.8039 8.58932 17.5948L4.59515 12.7107C3.37275 11.2159 2.77822 9.30508 2.93682 7.38067ZM9.82015 2.2915C8.40055 2.29172 7.03293 2.82569 5.98875 3.78744C4.94457 4.74918 4.30018 6.06838 4.18348 7.48317C4.05148 9.08472 4.54622 10.675 5.56348 11.919L9.55765 16.804C9.61134 16.8697 9.67898 16.9227 9.75565 16.959C9.83232 16.9954 9.91612 17.0143 10.001 17.0143C10.0858 17.0143 10.1696 16.9954 10.2463 16.959C10.323 16.9227 10.3906 16.8697 10.4443 16.804L14.4385 11.919C15.4552 10.6747 15.9493 9.0845 15.8168 7.48317C15.7001 6.06823 15.0556 4.74892 14.0112 3.78716C12.9669 2.82539 11.5991 2.29151 10.1793 2.2915H9.82015Z" fill="#00C5CC"/>
</svg>
