<svg width="65" height="63" viewBox="0 0 65 63" fill="none" xmlns="http://www.w3.org/2000/svg">
<path d="M29.3496 33.3664C29.5619 33.1459 29.7781 32.9333 30.0101 32.7404C30.6824 32.1734 32.4358 30.8622 33.3794 31.4055C33.9416 31.7284 33.859 32.8112 33.6506 33.2601C33.1395 34.3705 31.8343 35.3076 31.0362 36.2329C30.4072 36.9653 29.6523 37.6189 28.9683 38.304C27.8714 39.4026 26.8217 40.639 25.6344 41.643C25.6305 41.643 16.1478 49.6677 16.1478 49.6677L15.4087 48.9314L23.421 39.4223C24.9267 37.9182 26.4286 36.4101 27.9304 34.902C28.4179 34.4177 28.87 33.8665 29.3496 33.3664Z" fill="#78A3AD"/>
<path d="M29.3496 33.4569C27.4703 31.4291 25.7995 29.2319 24.4392 26.9561C23.4013 25.2196 21.007 21.1758 22.9217 19.2543L24.5925 17.5769C26.1612 16.0059 30.301 17.4549 34.8969 20.8569L45.2759 10.4658C42.6733 7.0087 41.4427 4.13039 42.3902 3.18145L44.5093 1.05914C45.8892 -0.318989 51.3578 2.91764 56.7243 8.29626C62.0907 13.6709 65.3263 19.1519 63.9464 20.5301L61.8312 22.6524C60.8798 23.6013 58.0059 22.3689 54.5581 19.7623L44.179 30.1533C47.5797 34.7602 49.0186 38.9025 47.4539 40.4735L45.7791 42.1509C43.7977 44.1315 39.5792 41.5524 37.8179 40.4696C34.7828 38.5953 31.8775 36.1816 29.3496 33.4569Z" fill="#ED6C30"/>
<mask id="mask0_327_327" style="mask-type:luminance" maskUnits="userSpaceOnUse" x="22" y="0" width="43" height="43">
<path d="M29.3496 33.4569C27.4703 31.4291 25.7995 29.2319 24.4392 26.9561C23.4013 25.2196 21.007 21.1758 22.9217 19.2543L24.5925 17.5769C26.1612 16.0059 30.301 17.4549 34.8969 20.8569L45.2759 10.4658C42.6733 7.0087 41.4427 4.13039 42.3902 3.18145L44.5093 1.05914C45.8892 -0.318989 51.3578 2.91764 56.7243 8.29626C62.0907 13.6709 65.3263 19.1519 63.9464 20.5301L61.8312 22.6524C60.8798 23.6013 58.0059 22.3689 54.5581 19.7623L44.179 30.1533C47.5797 34.7602 49.0186 38.9025 47.4539 40.4735L45.7791 42.1509C43.7977 44.1315 39.5792 41.5524 37.8179 40.4696C34.7828 38.5953 31.8775 36.1816 29.3496 33.4569Z" fill="white"/>
</mask>
<g mask="url(#mask0_327_327)">
<mask id="mask1_327_327" style="mask-type:luminance" maskUnits="userSpaceOnUse" x="41" y="-1" width="10" height="16">
<path d="M45.1382 -0.287598C45.1382 -0.287598 44.0217 2.02371 46.585 6.20534C48.9989 10.1428 50.3749 11.2493 50.3749 11.2493L47.965 14.0095C47.965 14.0095 43.3455 8.96946 42.3784 5.65409C41.4152 2.33871 42.0324 1.64571 42.0324 1.64571L45.1382 -0.287598Z" fill="white"/>
</mask>
<g mask="url(#mask1_327_327)">
<path d="M45.6219 2.47656L42.3784 5.65019L44.0493 8.78837L47.222 5.40212L45.6219 2.47656Z" fill="white"/>
</g>
<mask id="mask2_327_327" style="mask-type:luminance" maskUnits="userSpaceOnUse" x="41" y="-1" width="10" height="16">
<path d="M45.1382 -0.287598C45.1382 -0.287598 44.0217 2.02371 46.585 6.20534C48.9989 10.1428 50.3749 11.2493 50.3749 11.2493L47.965 14.0095C47.965 14.0095 43.3455 8.96946 42.3784 5.65409C41.4152 2.33871 42.0324 1.64571 42.0324 1.64571L45.1382 -0.287598Z" fill="white"/>
</mask>
<g mask="url(#mask2_327_327)">
<path d="M45.6219 2.47656L42.3784 5.65019L44.0493 8.78837L47.222 5.40212L45.6219 2.47656Z" fill="white"/>
</g>
</g>
<mask id="mask3_327_327" style="mask-type:luminance" maskUnits="userSpaceOnUse" x="22" y="0" width="43" height="43">
<path d="M29.3496 33.4569C27.4703 31.4291 25.7995 29.2319 24.4392 26.9561C23.4013 25.2196 21.007 21.1758 22.9217 19.2543L24.5925 17.5769C26.1612 16.0059 30.301 17.4549 34.8969 20.8569L45.2759 10.4658C42.6733 7.0087 41.4427 4.13039 42.3902 3.18145L44.5093 1.05914C45.8892 -0.318989 51.3578 2.91764 56.7243 8.29626C62.0907 13.6709 65.3263 19.1519 63.9464 20.5301L61.8312 22.6524C60.8798 23.6013 58.0059 22.3689 54.5581 19.7623L44.179 30.1533C47.5797 34.7602 49.0186 38.9025 47.4539 40.4735L45.7791 42.1509C43.7977 44.1315 39.5792 41.5524 37.8179 40.4696C34.7828 38.5953 31.8775 36.1816 29.3496 33.4569Z" fill="white"/>
</mask>
<g mask="url(#mask3_327_327)">
<mask id="mask4_327_327" style="mask-type:luminance" maskUnits="userSpaceOnUse" x="21" y="17" width="10" height="16">
<path d="M24.9307 17.1558C24.9307 17.1558 23.6962 19.7151 26.5347 24.3417C29.2081 28.7005 30.7335 29.9211 30.7335 29.9211L28.0601 32.9806C28.0601 32.9806 22.9453 27.4011 21.8798 23.7314C20.8105 20.0616 21.4946 19.2938 21.4946 19.2938L24.9307 17.1558Z" fill="white"/>
</mask>
<g mask="url(#mask4_327_327)">
<path d="M25.4654 20.2153L21.876 23.7315L24.3213 28.4723L27.8321 24.7238L25.4654 20.2153Z" fill="white"/>
</g>
<mask id="mask5_327_327" style="mask-type:luminance" maskUnits="userSpaceOnUse" x="21" y="17" width="10" height="16">
<path d="M24.9307 17.1558C24.9307 17.1558 23.6962 19.7151 26.5347 24.3417C29.2081 28.7005 30.7335 29.9211 30.7335 29.9211L28.0601 32.9806C28.0601 32.9806 22.9453 27.4011 21.8798 23.7314C20.8105 20.0616 21.4946 19.2938 21.4946 19.2938L24.9307 17.1558Z" fill="white"/>
</mask>
<g mask="url(#mask5_327_327)">
<path d="M25.4654 20.2153L21.876 23.7315L24.3213 28.4723L27.8321 24.7238L25.4654 20.2153Z" fill="white"/>
</g>
</g>
<mask id="mask6_327_327" style="mask-type:luminance" maskUnits="userSpaceOnUse" x="22" y="0" width="43" height="43">
<path d="M29.3496 33.4569C27.4703 31.4291 25.7995 29.2319 24.4392 26.9561C23.4013 25.2196 21.007 21.1758 22.9217 19.2543L24.5925 17.5769C26.1612 16.0059 30.301 17.4549 34.8969 20.8569L45.2759 10.4658C42.6733 7.0087 41.4427 4.13039 42.3902 3.18145L44.5093 1.05914C45.8892 -0.318989 51.3578 2.91764 56.7243 8.29626C62.0907 13.6709 65.3263 19.1519 63.9464 20.5301L61.8312 22.6524C60.8798 23.6013 58.0059 22.3689 54.5581 19.7623L44.179 30.1533C47.5797 34.7602 49.0186 38.9025 47.4539 40.4735L45.7791 42.1509C43.7977 44.1315 39.5792 41.5524 37.8179 40.4696C34.7828 38.5953 31.8775 36.1816 29.3496 33.4569Z" fill="white"/>
</mask>
<g mask="url(#mask6_327_327)">
<mask id="mask7_327_327" style="mask-type:luminance" maskUnits="userSpaceOnUse" x="31" y="10" width="17" height="18">
<path d="M45.2798 10.458L31.8775 23.8061C31.6927 23.9912 32.4829 25.4008 32.5812 25.5859C32.7385 25.8694 32.8839 26.1489 33.0766 26.4088C33.3911 26.8341 33.8668 27.1176 34.1813 27.5428C34.4211 27.4798 34.5037 27.2514 34.6452 27.0782C34.8536 26.8262 35.1209 26.6057 35.3529 26.3773C35.8207 25.9127 36.2847 25.4481 36.7525 24.9834L39.5006 22.2429C40.6053 21.1444 41.7101 20.0419 42.8109 18.9433C43.8448 17.9117 44.8395 16.7383 45.9953 15.8563C46.2745 15.6476 46.4475 15.4114 46.6833 15.1673C46.9271 14.9113 47.1866 14.6869 47.45 14.4585C47.6151 14.3168 47.7566 14.1356 47.9689 14.0805C48.024 13.8246 47.391 13.4702 47.2337 13.3127C47.0254 13.1001 45.1815 10.5564 45.2798 10.458Z" fill="white"/>
</mask>
<g mask="url(#mask7_327_327)">
<path d="M47.7251 13.9151L33.7566 28.2122L32.3806 26.0702L46.809 12.0015L47.7251 13.9151Z" fill="white"/>
</g>
<mask id="mask8_327_327" style="mask-type:luminance" maskUnits="userSpaceOnUse" x="31" y="10" width="17" height="18">
<path d="M45.2798 10.458L31.8775 23.8061C31.6927 23.9912 32.4829 25.4008 32.5812 25.5859C32.7385 25.8694 32.8839 26.1489 33.0766 26.4088C33.3911 26.8341 33.8668 27.1176 34.1813 27.5428C34.4211 27.4798 34.5037 27.2514 34.6452 27.0782C34.8536 26.8262 35.1209 26.6057 35.3529 26.3773C35.8207 25.9127 36.2847 25.4481 36.7525 24.9834L39.5006 22.2429C40.6053 21.1444 41.7101 20.0419 42.8109 18.9433C43.8448 17.9117 44.8395 16.7383 45.9953 15.8563C46.2745 15.6476 46.4475 15.4114 46.6833 15.1673C46.9271 14.9113 47.1866 14.6869 47.45 14.4585C47.6151 14.3168 47.7566 14.1356 47.9689 14.0805C48.024 13.8246 47.391 13.4702 47.2337 13.3127C47.0254 13.1001 45.1815 10.5564 45.2798 10.458Z" fill="white"/>
</mask>
<g mask="url(#mask8_327_327)">
<path opacity="0.2" d="M47.7251 13.9151L33.7566 28.2122L32.3806 26.0702L46.809 12.0015L47.7251 13.9151Z" fill="white"/>
</g>
</g>
<path d="M13.9742 44.1001C13.1005 47.0751 13.3451 52.7101 21.3129 51.4501" stroke="#181818" stroke-width="0.8" stroke-linecap="round"/>
</svg>
