<svg width="140" height="140" viewBox="0 0 140 140" fill="none" xmlns="http://www.w3.org/2000/svg">
<path d="M70 140C108.66 140 140 108.66 140 70C140 31.3401 108.66 0 70 0C31.3401 0 0 31.3401 0 70C0 108.66 31.3401 140 70 140Z" fill="#00C5CC"/>
<path d="M60.9978 97.8369C59.8035 97.8369 58.6544 97.3746 57.7857 96.5448L36.0149 75.7481C35.1368 74.8799 34.6307 73.6973 34.6055 72.4549C34.5803 71.2126 35.0381 70.0099 35.8803 69.1059C36.7224 68.202 37.8816 67.6691 39.1082 67.622C40.3347 67.5749 41.5304 68.0173 42.4378 68.8541L60.7395 86.3338L98.9583 43.6973C99.7956 42.7781 100.958 42.2312 102.192 42.1756C103.425 42.12 104.631 42.5604 105.546 43.4007C106.46 44.241 107.01 45.4132 107.074 46.6618C107.139 47.9105 106.714 49.1344 105.891 50.0669L64.4648 96.2833C64.0466 96.7498 63.5407 97.1273 62.9767 97.3936C62.4127 97.6599 61.802 97.8096 61.1801 97.8341C61.1194 97.8355 61.0586 97.8369 60.9978 97.8369Z" fill="white"/>
</svg>
