<svg width="25" height="24" viewBox="0 0 25 24" fill="none" xmlns="http://www.w3.org/2000/svg">
<path d="M22.36 5.39192C22.788 6.49592 22.189 7.25192 21.03 7.99792C20.095 8.59792 18.904 9.24992 17.642 10.3629C16.404 11.4539 15.197 12.7689 14.124 14.0629C13.206 15.1738 12.332 16.3204 11.504 17.4999C11.09 18.0909 10.511 18.9729 10.511 18.9729C10.3032 19.2939 10.0171 19.5566 9.67956 19.7363C9.34205 19.916 8.96431 20.0067 8.582 19.9999C8.19991 19.9977 7.82474 19.8977 7.49218 19.7095C7.15962 19.5214 6.88072 19.2513 6.682 18.9249C5.683 17.2479 4.913 16.5849 4.559 16.3479C3.612 15.7099 2.5 15.6179 2.5 14.1339C2.5 12.9549 3.495 11.9999 4.722 11.9999C5.589 12.0319 6.394 12.3729 7.108 12.8529C7.564 13.1589 8.047 13.5649 8.549 14.0979C9.22176 13.1799 9.9214 12.2818 10.647 11.4049C11.804 10.0099 13.17 8.51292 14.635 7.22092C16.075 5.95092 17.74 4.76192 19.505 4.13392C20.655 3.72392 21.933 4.28692 22.36 5.39192Z" stroke="#8FEC97" stroke-width="1.5" stroke-linecap="round" stroke-linejoin="round"/>
</svg>
