<svg width="36" height="56" viewBox="0 0 36 56" fill="none" xmlns="http://www.w3.org/2000/svg">
<path d="M1.02926 0.00010493C1.74355 0.429309 2.42248 0.913495 3.08945 1.41185C7.58631 4.76301 11.976 8.25509 16.3907 11.7134C16.6883 11.9485 16.993 12.1753 17.2808 12.4234C17.2939 12.7895 17.2998 13.1567 17.3129 13.5234C17.3058 13.3433 17.295 13.1643 17.2857 12.9848C16.3815 13.1349 15.5465 13.6006 14.9023 14.2464C12.2165 16.6487 10.0355 19.6083 8.51329 22.8734C8.09982 23.6334 7.90508 24.4832 7.62005 25.2949C7.48731 25.6327 7.58196 26.019 7.78704 26.3067C7.99049 26.5907 8.27505 26.8002 8.52908 27.0357C11.1017 29.3581 13.6462 31.7126 16.2063 34.0492C16.4528 34.2549 16.7041 34.4556 16.9228 34.6923C17.1725 34.9599 17.5022 35.1558 17.8689 35.2069C17.6094 35.5312 17.3063 35.8162 17.0393 36.1334C16.3739 36.9081 15.8369 37.7802 15.3152 38.6544C14.3213 40.2946 13.4063 41.9805 12.4999 43.6697C10.9054 46.659 9.39956 49.6947 7.9182 52.7412C7.58579 53.4027 7.28822 54.0827 6.93566 54.7334C6.92155 53.9952 6.96342 53.2569 6.96887 52.5187C7.12448 44.8834 7.3176 37.2486 7.51019 29.6132C7.52813 29.0681 7.52545 28.5224 7.5564 27.9784C7.5787 27.3604 7.48081 26.7462 7.48842 26.1282C5.54302 24.3503 3.58508 22.5856 1.62986 20.818C0.96342 20.1026 0.549948 19.1571 0.462386 18.1844C0.437361 17.987 0.414493 17.7889 0.416644 17.5898C0.418848 16.8804 0.413917 16.1711 0.420999 15.4616C2.44856 16.9207 4.41521 18.4625 6.4308 19.9384C6.79202 20.1332 7.27348 20.0331 7.55473 19.7415C7.8659 19.4351 7.93063 18.9184 7.70436 18.5451C7.5934 18.3357 7.38448 18.2127 7.20658 18.0686C5.46138 16.6775 3.7069 15.2978 1.96222 13.9068C1.25989 13.335 0.866565 12.4706 0.669617 11.6039C0.412861 10.5104 0.610335 9.38594 0.591291 8.27833C3.60679 10.6568 6.58583 13.0821 9.58664 15.479C9.78144 15.6314 9.95987 15.8201 10.2047 15.8897C10.666 16.0454 11.2116 15.862 11.4885 15.4622C11.7643 15.0824 11.7905 14.4954 11.4722 14.1358C10.3635 13.2273 9.22706 12.3525 8.10801 11.4571C6.66253 10.3125 5.21979 9.16407 3.77268 8.02052C3.04097 7.33451 2.42573 6.52227 1.98341 5.61974C1.1304 3.89516 0.729431 1.91277 1.02921 0L1.02926 0.00010493ZM31.3546 2.57659C32.5433 1.69583 33.7015 0.767752 34.9691 0.00010493C35.2814 1.97976 34.8418 4.03513 33.9235 5.801C33.4943 6.63223 32.9095 7.37596 32.2316 8.01732C29.8107 9.93282 27.3941 11.8554 24.9722 13.7698C24.81 13.9112 24.6321 14.0353 24.4782 14.1854C24.1839 14.6157 24.2606 15.2452 24.6327 15.6059C24.9999 15.9877 25.6479 16.0607 26.0803 15.7478C29.1916 13.26 32.2822 10.7461 35.4087 8.27791C35.4108 8.91765 35.4441 9.55582 35.4636 10.195C35.4886 11.2999 35.2237 12.4418 34.5709 13.3482C34.2841 13.7524 33.8707 14.0336 33.4915 14.3421C31.8736 15.626 30.254 16.9077 28.6361 18.1911C28.3799 18.358 28.1933 18.6355 28.1655 18.9434C28.1203 19.3253 28.3244 19.7197 28.66 19.9069C28.9321 20.0619 29.29 20.0908 29.5686 19.9385C31.5841 18.4631 33.5513 16.9213 35.5789 15.4617C35.586 16.1716 35.581 16.8816 35.5832 17.5915C35.5734 18.7764 35.178 19.9874 34.3402 20.8469C32.3931 22.603 30.4477 24.3602 28.5115 26.1283C28.5186 26.8186 28.3995 27.5068 28.4549 28.1977C28.6633 36.5642 28.8803 44.9296 29.0463 53.2966C29.055 53.7699 29.0773 54.2432 29.0637 54.717C28.8537 54.3928 28.7193 54.0261 28.5398 53.6845C26.2169 48.8944 23.8547 44.1173 21.1934 39.5035C20.6004 38.5264 20.0433 37.5227 19.3481 36.6126C18.9819 36.1105 18.5277 35.6834 18.1316 35.2068C18.4977 35.1557 18.8269 34.9604 19.0771 34.6927C19.2964 34.4555 19.5483 34.2542 19.7958 34.0475C22.3652 31.7023 24.9183 29.3396 27.5007 27.0084C27.7923 26.7397 28.1307 26.4992 28.3146 26.138C28.4278 25.9062 28.4854 25.6326 28.405 25.3813C28.2472 24.8738 28.0753 24.3711 27.9126 23.8651C27.7668 23.3755 27.5051 22.9327 27.2908 22.4713C26.4361 20.6891 25.3666 19.0119 24.136 17.4663C23.2307 16.3326 22.239 15.2652 21.1548 14.3007C20.4986 13.6299 19.6456 13.1381 18.7143 12.9847C18.7044 13.1642 18.6936 13.3437 18.687 13.5233C18.7001 13.1566 18.7061 12.7899 18.7191 12.4233C19.4694 11.8058 20.2468 11.2226 21.0068 10.6177C24.4395 7.91607 27.8744 5.21719 31.3546 2.57649L31.3546 2.57659Z" fill="#FEFEFE"/>
<path d="M14.9022 14.2465C15.5463 13.6007 16.3814 13.1351 17.2855 12.9849C17.2948 13.1644 17.3056 13.3434 17.3127 13.5235C17.408 16.3323 17.3568 19.1443 17.2546 21.9526C17.2284 22.6217 17.2225 23.2925 17.1751 23.9611C17.0647 24.6498 16.4364 25.1438 16.3977 25.8553C16.3194 26.7002 17.0266 27.5178 17.8709 27.5717C18.4878 27.6337 19.1015 27.2801 19.3996 26.7448C19.6554 26.3096 19.6738 25.7493 19.453 25.2955C19.2326 24.8005 18.8175 24.3647 18.8115 23.7957C18.6783 20.3738 18.5684 16.9475 18.687 13.5235C18.6935 13.3439 18.7044 13.1644 18.7142 12.9849C19.6456 13.1383 20.4986 13.6301 21.1547 14.3009C22.2389 15.2654 23.2307 16.3328 24.136 17.4665C25.3665 19.012 26.4361 20.6893 27.2907 22.4715C27.5051 22.9328 27.7667 23.3756 27.9125 23.8653C28.0752 24.3712 28.2471 24.8739 28.4049 25.3815C28.4855 25.6328 28.4277 25.9065 28.3146 26.1382C28.1307 26.4994 27.7923 26.7399 27.5007 27.0086C24.9182 29.3398 22.3652 31.7024 19.7957 34.0477C19.5482 34.2545 19.2963 34.4558 19.0771 34.6929C18.8268 34.9606 18.4977 35.1559 18.1316 35.207C18.044 35.2157 17.9553 35.2157 17.8688 35.207C17.5021 35.1559 17.1725 34.96 16.9227 34.6923C16.704 34.4557 16.4527 34.255 16.2062 34.0493C13.6461 31.7127 11.1017 29.3582 8.52904 27.0358C8.27495 26.8003 7.99045 26.5908 7.78699 26.3068C7.58191 26.0191 7.48727 25.6328 7.62 25.295C7.90504 24.4833 8.09983 23.6335 8.51324 22.8735C10.0354 19.6083 12.2164 16.6488 14.9023 14.2465L14.9022 14.2465ZM11.2224 48.9741C11.384 48.7135 11.5499 48.4469 11.7741 48.2353C11.9819 48.2418 12.1875 48.3305 12.3578 48.4475C12.5607 48.5927 12.4453 48.8805 12.3001 49.0241C12.0891 49.2885 11.7572 49.3881 11.4504 49.492C11.0097 49.6634 10.5533 49.8554 10.2263 50.209C10.1578 50.2689 10.2046 50.3804 10.2758 50.4152C10.5516 50.5544 10.8666 50.5697 11.1691 50.5969C12.8964 50.7057 14.628 50.5681 16.345 50.3755C17.7556 50.2378 19.1391 49.9228 20.5328 49.6791C20.8206 49.6367 21.1062 49.566 21.3978 49.5633C21.4962 49.5502 21.5621 49.6264 21.6317 49.6823C21.548 49.7977 21.4331 49.8837 21.2988 49.9304C20.578 50.2188 19.8152 50.3804 19.0618 50.5577C16.8346 51.0593 14.5709 51.4401 12.286 51.5244C12.1946 52.3057 12.1609 53.095 12.1995 53.8811C12.212 54.1564 12.4628 54.4126 12.7478 54.3811C13.0003 54.3821 13.188 54.1988 13.3707 54.0519C13.5089 53.9371 13.7102 54.0296 13.8609 53.9507C13.9572 53.8729 13.9959 53.7489 14.054 53.6444C14.3391 53.6803 14.3581 53.3425 14.486 53.169C14.5486 53.5579 14.3788 54.0448 13.986 54.1934C13.8657 54.2684 13.8157 54.4196 13.6928 54.4942C13.5562 54.5372 13.3903 54.4648 13.2727 54.566C13.0133 54.7706 12.8686 55.1285 12.528 55.221C12.312 55.2852 12.0982 55.1748 11.9486 55.0252C11.7962 55.3962 11.5846 55.7884 11.2065 55.9696C10.9002 56.0833 10.5929 55.8614 10.4454 55.6035C10.5553 55.4044 10.7093 55.2216 10.7468 54.9915C10.8573 54.4061 10.6946 53.8017 10.8491 53.2201C10.9595 52.7931 11.0199 52.3388 11.244 51.9525C11.2936 52.3948 11.2196 52.8377 11.2092 53.2805C11.1766 54.0231 11.1445 54.8065 10.7496 55.4609C11.2218 55.5066 11.6303 55.1248 11.7364 54.6863C11.8485 54.2037 11.756 53.7076 11.7538 53.2196C11.7353 52.631 11.892 52.0472 12.1624 51.5271C11.559 51.5358 10.9508 51.5581 10.3524 51.4667C10.113 51.4232 9.85354 51.3579 9.68597 51.1692C9.55051 50.9771 9.65281 50.7285 9.74688 50.5419C10.1125 49.9163 10.7 49.4419 11.3506 49.1367C11.3082 49.0812 11.2658 49.0269 11.2223 48.9741H11.2224ZM19.9392 48.806C20.2635 48.7712 20.5072 48.5312 20.8015 48.4165C20.7281 48.7113 20.4925 48.9235 20.257 49.0971C19.8658 49.3723 19.3533 49.523 18.8839 49.3772C18.5537 49.2488 18.2506 49.4871 17.9579 49.6051C18.0004 49.4517 18.0863 49.3163 18.2044 49.2107C18.4204 49.0078 18.6521 48.7809 18.9568 48.732C19.2864 48.7184 19.6074 48.8625 19.9392 48.8059V48.806ZM22.1382 49.2445C22.2404 49.0296 22.352 48.8196 22.4793 48.6189C22.5979 48.7288 22.7454 48.8294 22.7987 48.9899C22.8237 49.2167 22.6687 49.4076 22.531 49.5698C22.3944 49.4681 22.2633 49.3593 22.1382 49.2445ZM17.2121 48.9061C17.3443 49.022 17.5145 49.1275 17.5586 49.3108C17.5619 49.5361 17.427 49.7336 17.2746 49.8881C17.1348 49.7831 16.9988 49.6726 16.8671 49.5584C16.9711 49.3348 17.0864 49.1172 17.212 48.9061H17.2121ZM22.532 49.7292C22.6153 49.5617 22.7088 49.399 22.8095 49.2412C22.9341 49.3555 23.0995 49.4583 23.1381 49.6351C23.1381 49.8543 23.0015 50.0382 22.8492 50.1818C22.7328 50.0899 22.6191 49.9958 22.5076 49.8994C22.4369 50.0317 22.3656 50.1671 22.2562 50.2727C22.0996 50.2025 21.981 50.0719 21.8504 49.9653C21.9511 49.7471 22.0653 49.5361 22.1959 49.3342C22.3313 49.4435 22.4548 49.5703 22.5321 49.7291L22.532 49.7292ZM24.2745 50.0959C24.3811 49.887 24.4949 49.6813 24.6216 49.4838C24.7451 49.6073 24.9241 49.7172 24.9421 49.9087C24.9143 50.0931 24.8316 50.3052 24.6646 50.3999C24.5019 50.3488 24.3937 50.2079 24.2745 50.0959ZM22.9612 51.0338C23.3573 50.6035 23.7272 50.1497 24.0955 49.696C24.0215 50.0937 23.792 50.4354 23.5618 50.7591C22.9895 51.5403 22.2801 52.2045 21.6333 52.9216C22.0103 53.0026 22.3857 53.0907 22.7594 53.1859C22.9988 53.2012 23.1163 52.946 23.2621 52.7992C23.4574 52.8127 23.6059 52.6849 23.7147 52.5375C23.9041 52.5745 24.0346 52.4374 24.1342 52.2986C24.1957 52.2932 24.2566 52.2878 24.3186 52.2812C24.4475 52.1001 24.3273 51.8585 24.4165 51.6638C24.5161 51.4445 24.6385 51.2362 24.7767 51.0393C24.7898 51.3869 24.8055 51.7536 24.6587 52.0789C24.5694 52.2676 24.4688 52.4581 24.317 52.6049C23.8927 52.9787 23.3302 53.1571 22.9303 53.5608C22.7921 53.7142 22.586 53.6119 22.4222 53.5706C22.2514 54.0015 22.1425 54.4845 21.8014 54.8224C21.5963 55.0378 21.2177 55.0938 20.9848 54.892C20.8075 54.7141 20.7607 54.4486 20.7482 54.2076C20.7346 53.6358 20.8499 53.0733 20.9266 52.5102C20.9843 52.094 21.1524 51.7002 21.3776 51.3482C21.3112 51.8716 21.2073 52.3889 21.1431 52.9123C21.7796 52.3161 22.3634 51.6676 22.9612 51.0338V51.0338ZM21.3074 53.3448C21.0131 53.5308 21.1371 54.1325 21.5131 54.1243C21.7764 54.1401 22.0603 53.9753 22.1305 53.712C22.1751 53.5874 22.1213 53.4432 21.9956 53.3959C21.7802 53.3138 21.5316 53.2828 21.3074 53.3448ZM22.316 51.2568C22.606 50.9848 22.8296 50.641 23.156 50.4109C23.1674 50.443 23.1902 50.5072 23.2017 50.5393C22.9612 50.8483 22.6941 51.1355 22.4259 51.4211C22.3057 51.5419 22.1822 51.6828 22.0027 51.7057C21.9918 51.499 22.2034 51.3988 22.316 51.2568ZM25.1526 51.154C25.2146 50.9701 25.257 50.7721 25.3903 50.6225C25.3974 51.1818 25.362 51.7404 25.3517 52.2992C25.3484 52.779 25.2815 53.2626 25.0873 53.7049C24.9681 53.9601 24.9116 54.2783 24.6586 54.4398C24.7658 53.713 24.9431 52.9873 24.9051 52.2474C24.8838 51.8661 25.0378 51.5092 25.1526 51.1539V51.154ZM18.867 51.9798C18.9709 51.6768 19.0394 51.358 19.2043 51.08C19.2277 51.4135 19.1961 51.7476 19.1923 52.0816C19.177 52.6185 19.1928 53.1783 18.9742 53.6815C18.8665 53.9209 18.811 54.2032 18.5852 54.367C18.6401 53.9127 18.7588 53.4672 18.7849 53.0091C18.8191 52.6664 18.7512 52.3111 18.867 51.9798H18.867ZM17.075 51.6681C17.1321 51.4788 17.1936 51.2884 17.3078 51.1246C17.3046 51.6981 17.2855 52.2719 17.2616 52.8448C17.2485 53.304 17.0777 53.7381 16.8895 54.151C16.8465 54.2565 16.7654 54.3381 16.6849 54.417C16.7001 54.1206 16.7844 53.8344 16.8242 53.5417C16.8823 53.1652 16.8938 52.7844 16.8949 52.4047C16.8938 52.1473 17.0026 51.9096 17.0749 51.6681H17.075ZM14.7744 52.4591C14.8717 52.1006 14.9675 51.7361 15.1551 51.4119C15.1541 51.9809 15.1317 52.5494 15.1105 53.1179C15.1018 53.4574 15.0104 53.7881 14.8837 54.1015C14.7923 54.3164 14.7211 54.5542 14.535 54.7097C14.5551 54.3186 14.6791 53.9421 14.709 53.552C14.7569 53.1892 14.7101 52.8192 14.7743 52.4591H14.7744ZM26.1917 52.1071C26.4484 52.3432 26.7314 52.6 26.8032 52.958C26.8489 53.2512 26.776 53.5493 26.6748 53.824C26.5442 54.151 26.3936 54.5052 26.0721 54.6879C25.8017 54.8376 25.5133 54.9986 25.1967 55.004C25.4584 54.6025 25.9317 54.3986 26.207 54.0063C26.2957 53.9007 26.2565 53.7495 26.2086 53.6347C26.1025 53.4128 25.9012 53.261 25.7211 53.1027C25.8555 52.7605 26.0155 52.4292 26.1917 52.1072L26.1917 52.1071ZM19.7668 53.0053C19.8141 52.9112 19.9186 52.9694 19.9855 53.0069C20.2102 53.1396 20.3473 53.3953 20.3587 53.6538C20.3805 54.0368 20.2281 54.4078 20.0246 54.7255C19.9039 54.911 19.732 55.0971 19.498 55.1194C19.3392 55.1482 19.182 55.0187 19.1667 54.8621C19.1281 54.54 19.2907 54.2441 19.4474 53.9759C19.43 53.9525 19.3952 53.9051 19.3778 53.8817C19.4822 53.5792 19.6139 53.2855 19.7667 53.0053H19.7668ZM19.3969 54.4709C19.473 54.7151 19.8609 54.6155 19.9355 54.4186C19.9643 54.2207 19.7646 54.0879 19.5993 54.0378C19.503 54.1651 19.4023 54.3044 19.3969 54.4709H19.3969ZM15.882 52.9992C16.093 53.2054 16.3313 53.4187 16.4059 53.7163C16.4586 54.0062 16.3781 54.3016 16.2688 54.5693C16.185 54.7635 16.0996 54.9664 15.9413 55.1133C15.6894 55.3532 15.3478 55.4669 15.0137 55.5376C15.2379 55.1339 15.7357 54.9772 15.9375 54.5589C15.9478 54.2542 15.678 54.0508 15.4702 53.8723C15.5833 53.5698 15.7248 53.2799 15.882 52.9992L15.882 52.9992ZM18.144 53.2316C18.1838 53.1233 18.2098 52.9927 18.3312 52.9459C18.3241 53.4084 18.1957 53.8561 18.0749 54.2989C17.9852 54.5883 17.8747 54.9164 17.593 55.0731C17.3025 55.2216 16.9918 55.3521 16.6605 55.3587C16.7508 55.159 16.9424 55.0437 17.1083 54.9153C17.3443 54.7363 17.5729 54.5383 17.7328 54.2859C17.9422 53.9665 18.0227 53.5884 18.144 53.2316Z" fill="#FEFEFE"/>
</svg>
