<svg width="20" height="20" viewBox="0 0 20 20" fill="none" xmlns="http://www.w3.org/2000/svg">
<g clip-path="url(#clip0_202_118)">
<path d="M18.3335 10C18.3335 12.2102 17.4555 14.3299 15.8927 15.8927C14.3299 17.4555 12.2102 18.3335 10 18.3335C7.78983 18.3335 5.67017 17.4555 4.10733 15.8927C2.5445 14.3299 1.6665 12.2102 1.6665 10M18.3335 10C18.3335 7.78983 17.4555 5.67017 15.8927 4.10733C14.3299 2.5445 12.2102 1.6665 10 1.6665C7.78983 1.6665 5.67017 2.5445 4.10733 4.10733C2.5445 5.67017 1.6665 7.78983 1.6665 10M18.3335 10H1.6665" stroke="#00C5CC" stroke-width="1.5" stroke-linecap="round" stroke-linejoin="round"/>
<path d="M13.2048 10C13.0474 13.0475 11.9249 15.966 9.99963 18.3335C8.07436 15.966 6.95187 13.0475 6.79443 10C6.95187 6.95252 8.07436 4.03406 9.99963 1.6665C11.9249 4.03406 13.0474 6.95252 13.2048 10Z" stroke="#00C5CC" stroke-width="1.5" stroke-linecap="round" stroke-linejoin="round"/>
</g>
<defs>
<clipPath id="clip0_202_118">
<rect width="20" height="20" fill="white"/>
</clipPath>
</defs>
</svg>
